HIERARCHY
ROOT Hips
{
	OFFSET 0.000000 0.000000 0.000000 
	CHANNELS 6 Xposition Yposition Zposition Zrotation Yrotation Xrotation
	JOINT LeftUpLeg
	{
		OFFSET 1.363060 -1.794630 0.839290 
		CHANNELS 3 Zrotation Yrotation Xrotation
		JOINT LeftLeg
		{
			OFFSET 2.448110 -6.726130 0.000000 
			CHANNELS 3 Zrotation Yrotation Xrotation
			JOINT LeftFoot
			{
				OFFSET 2.562200 -7.039590 0.000000 
				CHANNELS 3 Zrotation Yrotation Xrotation
				JOINT LeftToeBase
				{
					OFFSET 0.157640 -0.433110 2.322550 
					CHANNELS 3 Zrotation Yrotation Xrotation
					End Site
					{
						OFFSET 0.000000 0.000000 0.000000 
					}
				}
			}
		}
	}
	JOINT RightUpLeg
	{
		OFFSET -1.305520 -1.794630 0.839290 
		CHANNELS 3 Zrotation Yrotation Xrotation
		JOINT RightLeg
		{
			OFFSET -2.542530 -6.985550 0.000000 
			CHANNELS 3 Zrotation Yrotation Xrotation
			JOINT RightFoot
			{
				OFFSET -2.568260 -7.056230 0.000000 
				CHANNELS 3 Zrotation Yrotation Xrotation
				JOINT RightToeBase
				{
					OFFSET -0.164730 -0.452590 2.363150 
					CHANNELS 3 Zrotation Yrotation Xrotation
					End Site
					{
						OFFSET 0.000000 0.000000 0.000000 
					}
				}
			}
		}
	}
	JOINT Spine
	{
		OFFSET 0.028270 2.035590 -0.193380 
		CHANNELS 3 Zrotation Yrotation Xrotation
		JOINT Spine1
		{
			OFFSET 0.056720 2.048850 -0.042750 
			CHANNELS 3 Zrotation Yrotation Xrotation
			JOINT Neck1
			{
				OFFSET -0.054170 1.746240 0.172020 
				CHANNELS 3 Zrotation Yrotation Xrotation
				JOINT Head
				{
					OFFSET 0.104070 1.761360 -0.123970 
					CHANNELS 3 Zrotation Yrotation Xrotation
					End Site
					{
						OFFSET 0.000000 0.000000 0.000000 
					}
				}
			}
			JOINT LeftArm
			{
				OFFSET 3.362410 1.200890 -0.311210 
				CHANNELS 3 Zrotation Yrotation Xrotation
				JOINT LeftForeArm
				{
					OFFSET 4.983000 -0.000000 -0.000000 
					CHANNELS 3 Zrotation Yrotation Xrotation
					JOINT LeftHand
					{
						OFFSET 3.483560 -0.000000 -0.000000 
						CHANNELS 3 Zrotation Yrotation Xrotation
						JOINT LeftHandIndex1
						{
							OFFSET 0.715260 -0.000000 -0.000000 
							CHANNELS 3 Zrotation Yrotation Xrotation
							End Site
							{
								OFFSET 0.000000 0.000000 0.000000 
							}
						}
					}
				}
			}
			JOINT RightArm
			{
				OFFSET -3.136600 1.374050 -0.404650 
				CHANNELS 3 Zrotation Yrotation Xrotation
				JOINT RightForeArm
				{
					OFFSET -5.241900 -0.000000 -0.000000 
					CHANNELS 3 Zrotation Yrotation Xrotation
					JOINT RightHand
					{
						OFFSET -3.444170 -0.000000 -0.000000 
						CHANNELS 3 Zrotation Yrotation Xrotation
						JOINT RightHandIndex1
						{
							OFFSET -0.622530 -0.000000 -0.000000 
							CHANNELS 3 Zrotation Yrotation Xrotation
							End Site
							{
								OFFSET 0.000000 0.000000 0.000000 
							}
						}
					}
				}
			}
		}
	}
}
MOTION
Frames: 9
Frame Time: 0.041667
12.914979 15.921677 2.691704 175.072207 -64.342694 -162.764500 -15.472151 7.401736 -46.666849 11.199218 20.012436 65.359860 0.836980 3.110290 -21.325146 0.011900 -0.702900 -1.931700 -2.578172 10.146133 -48.177601 -5.320874 -15.020083 43.266851 -0.222699 -0.580894 -4.439573 -1.310100 7.250300 -20.458900 0.371115 2.582007 2.331409 3.411528 0.523994 -5.009069 5.779765 -5.657583 10.873496 1.753600 -2.860500 15.398600 -58.784296 0.750523 53.551002 63.239590 -57.413411 -37.564743 0.112029 0.088670 -23.633561 -7.125000 0.000000 0.000000 58.595014 6.531542 31.949025 -79.791420 56.406608 -51.143502 1.036970 0.511725 -31.136601 7.125000 0.000000 0.000000 
12.933250 15.903928 2.623422 175.128163 -64.012003 -162.546519 -15.239290 7.540637 -46.955691 11.278391 20.014540 65.581811 0.801421 3.280060 -21.316985 0.016800 -0.837200 -2.300900 -2.466967 10.199700 -49.010991 -5.446299 -15.187943 43.841020 -0.205432 -0.136208 -4.212854 -1.199400 6.948800 -19.563900 0.349877 2.696618 2.402946 3.284264 0.571504 -4.784856 5.667347 -5.074238 11.003981 1.784500 -2.632400 15.465700 -58.694665 1.110691 53.419174 63.626376 -57.508618 -37.918329 0.129988 0.081033 -23.690683 -7.125000 0.000000 0.000000 58.280563 7.387034 32.443190 -80.483828 56.398677 -51.730501 1.041146 0.527673 -31.232995 7.125000 0.000000 0.000000 
12.943273 15.895784 2.557541 175.176917 -63.873185 -162.247229 -14.943407 7.417003 -47.296132 11.343205 20.021212 65.769757 0.750781 3.546092 -21.351209 0.028200 -1.084400 -2.981000 -2.338626 10.080942 -49.811640 -5.586161 -15.354212 44.466692 -0.191593 0.221107 -4.056699 -1.051200 6.519500 -18.299500 0.327103 2.715124 2.435244 3.041070 0.596377 -4.598024 5.147696 -4.270293 11.166770 1.570000 -2.348900 15.518100 -58.627936 1.535727 53.297523 63.874701 -57.577651 -38.165049 0.137398 0.078971 -23.857486 -7.125000 0.000000 0.000000 58.102615 8.331004 33.094118 -81.094773 56.370449 -52.133175 1.040460 0.512532 -31.321297 7.125000 0.000000 0.000000 
12.951312 15.886596 2.492287 174.605252 -63.938550 -161.394695 -14.866736 7.084984 -47.611024 11.372834 20.042931 65.873459 0.690729 3.830913 -21.341963 0.037400 -1.248500 -3.432800 -2.515973 9.755490 -50.548696 -5.739918 -15.501945 45.146859 -0.180430 0.494552 -4.110001 -0.925400 6.128400 -17.157400 0.305881 2.576988 2.406649 2.880484 0.558164 -4.577974 4.595040 -3.349701 11.331524 1.355300 -2.030700 15.548000 -58.658396 2.092056 53.099878 64.001768 -57.626263 -38.318175 0.139382 0.079754 -24.175620 -7.125000 0.000000 0.000000 57.585322 8.828767 33.906800 -82.422560 56.371929 -53.256970 1.024340 0.529878 -31.945188 7.125000 0.000000 0.000000 
12.958829 15.869578 2.423379 173.671117 -64.092770 -160.314755 -14.959178 6.757891 -47.738044 11.388209 20.074525 65.941970 0.675802 3.936574 -21.403440 0.038400 -1.264500 -3.476900 -2.873641 9.377680 -51.187896 -5.918869 -15.658800 45.927222 -0.168541 0.796911 -4.277850 -0.854500 5.895300 -16.480800 0.298489 2.426022 2.347059 2.826277 0.509918 -4.709761 4.235431 -2.444017 11.402412 1.305000 -1.726400 15.487600 -58.833094 2.735379 52.961958 64.107840 -57.679844 -38.439674 0.139825 0.083264 -24.683234 -7.125000 0.000000 0.000000 57.244174 9.640327 34.814601 -82.845118 56.338599 -53.513195 1.028661 0.551180 -32.329561 7.125000 0.000000 0.000000 
12.963214 15.859137 2.353113 172.932921 -64.425199 -159.554584 -14.931132 6.397136 -47.629672 11.388101 20.099192 65.957461 0.693697 3.897026 -21.484939 0.037700 -1.253700 -3.447200 -3.038033 8.926762 -51.588760 -6.114816 -15.829315 46.757187 -0.159157 1.094052 -4.548319 -0.782300 5.646700 -15.762600 0.249005 2.258143 2.393606 2.499857 0.440255 -4.639384 3.925721 -1.734487 11.497277 1.244000 -1.480400 15.583900 -58.813468 2.935666 52.777116 64.234830 -57.709275 -38.587296 0.135873 0.088095 -25.453796 -7.125000 0.000000 0.000000 56.809754 10.484620 35.524542 -83.794743 56.300151 -54.291151 1.019669 0.574993 -32.773984 7.125000 0.000000 0.000000 
13.004872 15.833766 2.266352 173.680899 -64.720566 -159.868762 -14.156096 6.386597 -48.165574 11.467366 20.058474 66.131758 0.692965 3.711867 -21.113391 0.039000 -1.274900 -3.505600 -2.706320 9.343385 -52.443473 -6.298440 -16.094337 47.630657 -0.176310 0.808975 -4.841564 -0.741100 5.499500 -15.338900 0.226123 2.356627 2.373033 2.074046 0.521475 -4.724547 3.475547 -1.082338 11.506965 1.030700 -1.242200 15.589600 -58.452405 3.185139 52.617467 64.524677 -57.760312 -38.902878 0.125230 0.093590 -26.533248 -7.125000 0.000000 0.000000 56.742908 11.603194 36.203534 -84.342061 56.239373 -54.697656 1.034211 0.599243 -33.354573 7.125000 0.000000 0.000000 
13.014165 15.821864 2.184079 173.639268 -64.983051 -159.461196 -13.870936 6.436071 -48.513938 11.547508 20.049914 66.333627 0.760648 3.326208 -20.988316 0.040400 -1.297000 -3.566400 -2.677786 9.267961 -53.188352 -6.516308 -16.321257 48.564993 -0.175623 0.991418 -5.150434 -0.736900 5.484300 -15.295100 0.163797 2.318283 2.413500 1.701000 0.532864 -4.534257 3.171852 -0.470634 11.508485 0.932300 -1.017300 15.557100 -58.136257 3.577746 52.339874 64.970068 -57.856320 -39.357590 0.109445 0.089382 -27.633817 -7.125000 0.000000 0.000000 56.641367 12.910492 36.927057 -84.573905 56.177198 -54.796340 1.050815 0.629099 -34.114386 7.125000 0.000000 0.000000 
13.029095 15.794614 2.097944 173.408847 -65.281788 -158.612340 -13.635129 6.485572 -49.313405 11.683419 20.053741 66.695515 0.844789 2.838460 -20.821903 0.043400 -1.345100 -3.699000 -2.846525 9.127766 -54.341484 -6.760540 -16.553916 49.600328 -0.178870 1.115677 -5.514499 -0.707900 5.377300 -14.988000 0.125063 2.220536 2.432869 1.549691 0.508580 -4.306499 3.132616 0.038560 11.430495 1.009500 -0.817900 15.473100 -58.011745 4.134771 51.803335 65.515078 -57.978472 -39.903249 0.091349 0.078065 -28.560917 -7.125000 0.000000 0.000000 56.440079 14.356643 37.731155 -84.437230 56.108103 -54.520160 1.067213 0.657952 -34.815178 7.125000 0.000000 0.000000 
